<svg width="256" height="46" viewBox="0 0 256 46" fill="none" xmlns="http://www.w3.org/2000/svg">
<mask id="mask0_147_4" style="mask-type:luminance" maskUnits="userSpaceOnUse" x="0" y="0" width="49" height="46">
<path d="M0.981689 0.153564H48.0731V45.8465H0.981689V0.153564Z" fill="white"/>
</mask>
<g mask="url(#mask0_147_4)">
<mask id="mask1_147_4" style="mask-type:luminance" maskUnits="userSpaceOnUse" x="0" y="0" width="49" height="46">
<path d="M0.981689 0.153564H48.0731V45.8465H0.981689V0.153564Z" fill="white"/>
</mask>
<g mask="url(#mask1_147_4)">
<path d="M9.11746 16.3961C9.89175 21.7737 15.7708 18.9108 15.7708 22.8174C15.7708 18.9107 21.6499 21.7737 22.4242 16.3961H9.11746Z" fill="#CE3045"/>
</g>
<mask id="mask2_147_4" style="mask-type:luminance" maskUnits="userSpaceOnUse" x="0" y="0" width="49" height="46">
<path d="M0.981689 0.153564H48.0731V45.8465H0.981689V0.153564Z" fill="white"/>
</mask>
<g mask="url(#mask2_147_4)">
<path d="M7.92091 33.312C8.29629 33.6307 8.80752 33.8987 8.80752 33.8987L9.19026 31.6426L7.4082 32.7113C7.4082 32.7113 7.60123 33.0406 7.92091 33.312Z" fill="#B6D554"/>
</g>
<mask id="mask3_147_4" style="mask-type:luminance" maskUnits="userSpaceOnUse" x="0" y="0" width="49" height="46">
<path d="M0.981689 0.153564H48.0731V45.8465H0.981689V0.153564Z" fill="white"/>
</mask>
<g mask="url(#mask3_147_4)">
<path d="M6.91186 31.426C6.97069 31.8744 7.13135 32.3441 7.13135 32.3441L8.92995 31.4255L6.91186 30.6716C6.91186 30.6716 6.86168 31.0434 6.91186 31.426Z" fill="#B6D554"/>
</g>
<mask id="mask4_147_4" style="mask-type:luminance" maskUnits="userSpaceOnUse" x="0" y="0" width="49" height="46">
<path d="M0.981689 0.153564H48.0731V45.8465H0.981689V0.153564Z" fill="white"/>
</mask>
<g mask="url(#mask4_147_4)">
<path d="M9.96637 34.0809C9.55239 34.109 9.19025 34.0078 9.19025 34.0078L9.58658 31.7877L10.8903 33.8923C10.8903 33.8923 10.4019 34.0513 9.96637 34.0809Z" fill="#B6D554"/>
</g>
<mask id="mask5_147_4" style="mask-type:luminance" maskUnits="userSpaceOnUse" x="0" y="0" width="49" height="46">
<path d="M0.981689 0.153564H48.0731V45.8465H0.981689V0.153564Z" fill="white"/>
</mask>
<g mask="url(#mask5_147_4)">
<path d="M12.0843 33.1671C11.7905 33.4896 11.4062 33.7573 11.4062 33.7573L10.1837 31.7841L12.6286 32.4149C12.6286 32.4149 12.401 32.8193 12.0843 33.1671Z" fill="#B6D554"/>
</g>
<mask id="mask6_147_4" style="mask-type:luminance" maskUnits="userSpaceOnUse" x="0" y="0" width="49" height="46">
<path d="M0.981689 0.153564H48.0731V45.8465H0.981689V0.153564Z" fill="white"/>
</mask>
<g mask="url(#mask6_147_4)">
<path d="M22.7459 32.9542C22.7459 33.4029 22.3819 33.7667 21.9328 33.7667C21.4837 33.7667 21.1197 33.4029 21.1197 32.9542C21.1197 32.5055 21.4837 32.1417 21.9328 32.1417C22.3819 32.1417 22.7459 32.5055 22.7459 32.9542Z" fill="#FCBC22"/>
</g>
<mask id="mask7_147_4" style="mask-type:luminance" maskUnits="userSpaceOnUse" x="0" y="0" width="49" height="46">
<path d="M0.981689 0.153564H48.0731V45.8465H0.981689V0.153564Z" fill="white"/>
</mask>
<g mask="url(#mask7_147_4)">
<path d="M28.0111 33.7666C28.0111 34.4076 27.4911 34.9272 26.8497 34.9272C26.2083 34.9272 25.6883 34.4076 25.6883 33.7666C25.6883 33.1257 26.2083 32.6061 26.8497 32.6061C27.4911 32.6061 28.0111 33.1257 28.0111 33.7666Z" fill="#FCBC22"/>
</g>
<mask id="mask8_147_4" style="mask-type:luminance" maskUnits="userSpaceOnUse" x="0" y="0" width="49" height="46">
<path d="M0.981689 0.153564H48.0731V45.8465H0.981689V0.153564Z" fill="white"/>
</mask>
<g mask="url(#mask8_147_4)">
<path d="M35.9868 22.8174H41.2522V32.9542H35.9868V22.8174Z" fill="#8B0037"/>
</g>
<mask id="mask9_147_4" style="mask-type:luminance" maskUnits="userSpaceOnUse" x="0" y="0" width="49" height="46">
<path d="M0.981689 0.153564H48.0731V45.8465H0.981689V0.153564Z" fill="white"/>
</mask>
<g mask="url(#mask9_147_4)">
<path d="M22.3402 11.0952L23.4088 9.05713L21.4399 11.0952H22.3402Z" fill="#FCBC22"/>
</g>
<mask id="mask10_147_4" style="mask-type:luminance" maskUnits="userSpaceOnUse" x="0" y="0" width="49" height="46">
<path d="M0.981689 0.153564H48.0731V45.8465H0.981689V0.153564Z" fill="white"/>
</mask>
<g mask="url(#mask10_147_4)">
<path d="M27.6483 11.0952L26.5797 9.05713L28.5483 11.0952H27.6483Z" fill="#FCBC22"/>
</g>
<mask id="mask11_147_4" style="mask-type:luminance" maskUnits="userSpaceOnUse" x="0" y="0" width="49" height="46">
<path d="M0.981689 0.153564H48.0731V45.8465H0.981689V0.153564Z" fill="white"/>
</mask>
<g mask="url(#mask11_147_4)">
<path d="M25.4179 11.0952L24.9678 9.05713L24.5178 11.0952H25.4179Z" fill="#FCBC22"/>
</g>
<mask id="mask12_147_4" style="mask-type:luminance" maskUnits="userSpaceOnUse" x="0" y="0" width="49" height="46">
<path d="M0.981689 0.153564H48.0731V45.8465H0.981689V0.153564Z" fill="white"/>
</mask>
<g mask="url(#mask12_147_4)">
<path d="M46.3623 20.5401C46.2075 16.9089 45.1189 13.3396 43.2019 10.2494C41.3381 7.24497 38.7242 4.71665 35.6544 2.95928C32.4835 1.14405 28.8584 0.176179 25.205 0.153953C21.5659 0.13191 17.9442 1.04853 14.7603 2.81049C11.6646 4.52359 9.0169 7.01627 7.10984 9.99371C5.15187 13.0507 4.01323 16.5976 3.8044 20.2196C3.7487 21.1869 3.76928 22.1594 3.76928 23.1278V27.5176C3.76928 27.9609 4.45864 27.9616 4.45864 27.5176V21.7273C4.45864 18.575 5.07852 15.4716 6.43997 12.617C7.92972 9.49352 10.2046 6.75267 13.0161 4.73024C15.8703 2.67713 19.2404 1.3586 22.7389 0.970826C23.4005 0.897533 24.0654 0.856019 24.7307 0.845548V4.65346C24.7307 4.7014 24.7401 4.7431 24.7544 4.78076C22.5532 4.89538 20.5697 6.17736 19.5724 8.15993L19.4388 8.42555H30.7118L30.5781 8.15993C29.5809 6.17736 27.5973 4.89538 25.3962 4.78076C25.4105 4.7431 25.4199 4.7014 25.4199 4.65346V0.846099C28.1036 0.891838 30.777 1.44971 33.2428 2.51952C36.4331 3.90382 39.2538 6.08918 41.3853 8.83646C43.542 11.6161 44.9547 14.94 45.4737 18.4174C45.7384 20.1917 45.6921 21.9821 45.6921 23.7696V34.9117H43.3554V24.6137C43.3554 23.8951 43.3709 23.1744 43.3516 22.456C43.3234 21.4132 43.1264 20.3864 42.6291 19.4615C42.1475 18.5656 41.4408 17.8053 40.7623 17.0568C40.605 16.8832 40.4476 16.7094 40.2904 16.5355V10.3732C40.2904 10.187 40.1325 10.0288 39.9457 10.0288H37.5486C37.3622 10.0288 37.2039 10.1866 37.2039 10.3732V16.5351C36.5199 17.2895 35.8053 18.0302 35.2276 18.8709C34.6667 19.6873 34.3353 20.5987 34.2088 21.5789C34.0977 22.4397 34.1387 23.328 34.1387 24.1948V34.4266C34.1387 34.586 34.129 34.7525 34.1272 34.9174H31.7576V32.6138C31.7576 32.3873 31.5375 32.2258 31.3214 32.2816C30.8872 32.3937 30.4219 32.3507 30.0566 32.1167C29.7952 31.9492 29.602 31.6657 29.5097 31.377C29.3119 30.7583 29.4426 30.0219 29.9702 29.5972C30.3147 29.3198 30.853 29.2506 31.3214 29.3711C31.5377 29.4267 31.7576 29.2656 31.7576 29.039V26.3387C31.7576 26.1302 31.535 25.928 31.3214 26.0066C29.5347 26.6633 27.7481 27.32 25.9614 27.9767C25.7072 28.0702 25.453 28.1637 25.1987 28.257C24.9414 28.3516 24.8768 28.6238 25.0467 28.8327C25.4737 29.3578 25.3463 30.3049 24.7136 30.6104C24.3522 30.7849 23.8507 30.7506 23.536 30.4947C23.1955 30.2179 23.1088 29.7651 23.1611 29.3501C23.1893 29.1275 22.9185 28.9585 22.7249 29.018L19.3616 30.0527C19.2162 30.0976 19.1084 30.2302 19.1084 30.3849V34.9172H16.8188V24.0383C17.0887 23.8328 17.2677 23.5189 17.4304 23.2277C17.6707 22.7977 17.8948 22.4033 18.2599 22.0798C18.7615 21.6353 19.4145 21.4872 20.0629 21.4152C20.5956 21.3561 21.103 21.1797 21.548 20.8781C22.4648 20.2571 23.0784 19.2778 23.515 18.2802C23.9496 17.287 24.2483 16.2397 24.4498 15.1758C24.5321 14.7408 24.5996 14.3018 24.6436 13.8613C24.6643 13.6525 24.7237 13.3604 24.6152 13.1657C24.5566 13.0602 24.4371 12.995 24.3176 12.995H9.34467C8.6542 12.995 7.95602 12.9651 7.2661 12.995C7.25636 12.9954 7.24643 12.995 7.2365 12.995C7.11701 12.995 6.99752 13.0602 6.93888 13.1657C6.84476 13.3349 6.88465 13.5707 6.90046 13.754C6.93263 14.1253 6.98576 14.4956 7.04808 14.8628C7.22033 15.8782 7.47805 16.8867 7.85748 17.8454C8.26154 18.8665 8.80604 19.9079 9.66563 20.6208C10.0724 20.9582 10.5399 21.2225 11.0578 21.3445C11.3901 21.4228 11.7335 21.4261 12.0668 21.4992C12.3961 21.5714 12.7106 21.6834 12.9977 21.8614C13.4801 22.1603 13.7674 22.5927 14.0386 23.0754C14.2281 23.4131 14.4187 23.7997 14.7349 24.0391V34.9171H13.4007C13.7821 34.2049 13.7746 33.2611 13.5836 32.508C13.4948 32.1573 13.0288 32.2054 12.9189 32.508C12.4615 33.7677 11.2212 34.5502 9.89413 34.5153C8.63784 34.4823 7.38136 33.7642 6.84605 32.6119C6.56607 32.0092 6.49034 31.3285 6.48923 30.6714C6.48887 30.3869 6.10356 30.1988 5.90079 30.4278C5.04727 31.3924 4.71068 32.6325 5.15279 33.8652C5.28276 34.2278 5.46199 34.5884 5.68332 34.9171H4.11323C3.66965 34.9171 3.66891 35.6059 4.11323 35.6059H6.40688C6.70542 35.6059 6.86186 35.229 6.65064 35.0179C6.6192 34.9865 6.58924 34.9532 6.55983 34.9198C6.52876 34.8847 6.49824 34.8489 6.46846 34.8125C6.41791 34.751 6.40762 34.7369 6.38923 34.7122C6.17599 34.4246 5.98628 34.1121 5.85373 33.7787C5.687 33.3592 5.60207 32.9077 5.64894 32.4563C5.67781 32.1797 5.76016 31.9172 5.87855 31.6709C6.0508 32.7396 6.52398 33.7179 7.45397 34.3831C8.74244 35.3046 10.5322 35.4909 11.9242 34.6964C12.3523 34.4521 12.7137 34.1257 13.006 33.7442C12.9759 34.2301 12.8281 34.6983 12.435 35.0179C12.195 35.2132 12.4007 35.6059 12.6788 35.6059H15.0792C15.2656 35.6059 15.4239 35.4481 15.4239 35.2615V23.8506C15.4239 23.7349 15.3596 23.607 15.2531 23.5532C15.218 23.5354 15.1855 23.5157 15.1524 23.4944C15.1763 23.5099 15.1493 23.497 15.1099 23.4573C15.0811 23.4281 15.053 23.3989 15.0254 23.3686C14.9585 23.2949 15.0127 23.3591 14.9739 23.3025C14.8609 23.1379 14.7649 22.9632 14.6676 22.7891C14.4322 22.3671 14.173 21.9505 13.8132 21.6215C13.3079 21.1595 12.6652 20.8928 11.9931 20.7866C11.4475 20.7005 10.9806 20.6649 10.5028 20.3785C9.65846 19.8724 9.09631 18.9545 8.68821 18.0552C8.26558 17.1239 7.99021 16.1207 7.79277 15.1194C7.747 14.8871 7.70582 14.6538 7.67016 14.4197C7.66244 14.369 7.65508 14.3182 7.64773 14.2675C7.64442 14.2443 7.6413 14.2212 7.63799 14.198C7.63854 14.203 7.63762 14.1947 7.63799 14.198C7.62677 14.1086 7.61446 14.0083 7.6049 13.9186C7.59662 13.8404 7.58946 13.7621 7.58339 13.6837H23.6169C23.7296 13.6837 23.8476 13.6907 23.9654 13.694C23.9621 13.7349 23.9608 13.7761 23.9569 13.8169C23.9507 13.8834 23.9435 13.9497 23.936 14.0162C23.9316 14.0551 23.9268 14.0941 23.922 14.1332C23.9198 14.1514 23.9174 14.1694 23.915 14.1876C23.9154 14.1833 23.9141 14.1944 23.915 14.1876C23.9147 14.1905 23.9128 14.2054 23.9123 14.209C23.8856 14.4005 23.8557 14.5913 23.8222 14.7816C23.6457 15.7842 23.3862 16.7794 23.0054 17.7247C22.6359 18.6422 22.1104 19.5949 21.3249 20.1937C20.9585 20.4731 20.5438 20.6639 20.0722 20.7255C19.4099 20.8122 18.7014 20.9264 18.1077 21.3307C17.6124 21.668 17.2563 22.1342 16.9626 22.6495C16.8499 22.8471 16.7458 23.0506 16.6201 23.2406C16.5333 23.3715 16.4365 23.4832 16.299 23.5528C16.1925 23.6067 16.1282 23.7345 16.1282 23.8502V35.2611C16.1282 35.4474 16.2861 35.6055 16.4729 35.6055H19.4518C19.6382 35.6055 19.7965 35.4477 19.7965 35.2611V30.6385C20.6875 30.3645 21.5787 30.0902 22.4698 29.8161C22.5696 30.6817 23.2503 31.3828 24.1823 31.4007C25.1651 31.4196 25.8965 30.6868 25.9745 29.7282C26.0017 29.3929 25.9359 29.0649 25.7967 28.7676C27.4448 28.1618 29.0928 27.5562 30.7408 26.9504C30.8497 26.9103 30.9585 26.8705 31.0673 26.8304V28.6343C30.095 28.5615 29.1891 29.0823 28.8566 30.0557C28.5503 30.9521 28.8134 32.0399 29.5805 32.6202C30.0057 32.9418 30.5428 33.0592 31.0673 33.0164V35.2609C31.0673 35.4472 31.2252 35.6053 31.412 35.6053H34.4825C34.6689 35.6053 34.8272 35.4476 34.8272 35.2609V23.3073C34.8272 22.6783 34.8169 22.0464 34.9215 21.4239C35.0285 20.787 35.2362 20.1818 35.5631 19.6239C35.9008 19.0473 36.3324 18.5357 36.7743 18.0372C37.0478 17.7286 37.3264 17.4247 37.603 17.1189C37.7409 16.9666 37.885 16.8389 37.8924 16.6235C37.9008 16.3766 37.8924 16.1279 37.8924 15.881V10.7167H39.6001V16.3705C39.6001 16.456 39.5968 16.5421 39.6001 16.6275C39.6086 16.8513 39.7715 16.9887 39.9141 17.1463C40.8257 18.1536 41.8723 19.1696 42.3317 20.4808C42.8087 21.8425 42.6651 23.4103 42.6651 24.8372V30.994C42.6651 32.3928 42.6328 33.7958 42.6651 35.1942C42.6657 35.2146 42.6651 35.235 42.6651 35.2554C42.6651 35.4799 42.8418 35.596 43.0164 35.5932L46.0358 35.5998C46.2223 35.5998 46.3805 35.442 46.3805 35.2554V25.112C46.3805 23.5907 46.427 22.0609 46.3623 20.5401ZM23.9807 13.3936C23.9807 13.3924 23.9807 13.3949 23.9807 13.3936C23.9842 13.3655 23.9626 13.3527 23.9807 13.3936Z" fill="black"/>
</g>
<mask id="mask13_147_4" style="mask-type:luminance" maskUnits="userSpaceOnUse" x="0" y="0" width="49" height="46">
<path d="M0.981689 0.153564H48.0731V45.8465H0.981689V0.153564Z" fill="white"/>
</mask>
<g mask="url(#mask13_147_4)">
<path d="M48.0731 36.9692C48.0731 37.4818 37.5313 37.8974 24.5274 37.8974C11.5235 37.8974 0.981689 37.4818 0.981689 36.9692C0.981689 36.4566 11.5235 36.041 24.5274 36.041C37.5313 36.041 48.0731 36.4566 48.0731 36.9692Z" fill="black"/>
</g>
<mask id="mask14_147_4" style="mask-type:luminance" maskUnits="userSpaceOnUse" x="0" y="0" width="49" height="46">
<path d="M0.981689 0.153564H48.0731V45.8465H0.981689V0.153564Z" fill="white"/>
</mask>
<g mask="url(#mask14_147_4)">
<path d="M19.2877 45.8162L19.2002 45.8465H29.7059L29.6184 45.8162C26.8372 44.85 25.0752 42.8501 25.0752 40.6596C25.0752 40.2018 25.3651 39.7682 25.8653 39.4776L27.7863 38.3615H21.1197L23.0407 39.4776C23.5409 39.7682 23.8308 40.2018 23.8308 40.6596C23.8308 42.8501 22.0688 44.85 19.2877 45.8162Z" fill="black"/>
</g>
</g>
<path d="M67.359 13.2859C69.2444 13.2859 70.6486 13.7274 71.5716 14.6105C72.4947 15.4936 72.9562 16.7987 72.9562 18.5256C72.9562 19.448 72.7304 20.2575 72.2787 20.9542C71.8269 21.6508 71.1592 22.1905 70.2754 22.5732C69.3917 22.9559 68.3017 23.1472 67.0055 23.1472L67.1233 21.8225C67.7321 21.8225 68.4293 21.9059 69.2149 22.0728C70.0005 22.2396 70.7615 22.5339 71.498 22.9559C72.2345 23.3778 72.8433 23.9665 73.3245 24.7221C73.8056 25.4776 74.0462 26.4441 74.0462 27.6216C74.0462 28.9168 73.8351 29.9765 73.4128 30.8008C72.9906 31.625 72.4358 32.2628 71.7484 32.7142C71.061 33.1655 70.3245 33.4746 69.539 33.6414C68.7534 33.8082 67.9973 33.8916 67.2706 33.8916H59.9353C59.4247 33.8916 58.9975 33.7199 58.6538 33.3765C58.3101 33.0331 58.1383 32.6062 58.1383 32.096V15.0815C58.1383 14.5713 58.3101 14.1444 58.6538 13.801C58.9975 13.4576 59.4247 13.2859 59.9353 13.2859H67.359ZM66.8287 16.7594H61.585L61.968 16.2884V21.6165L61.6145 21.3516H66.9171C67.4866 21.3516 67.9973 21.1651 68.449 20.7923C68.9007 20.4194 69.1265 19.8797 69.1265 19.1732C69.1265 18.3294 68.9154 17.7161 68.4932 17.3334C68.0709 16.9508 67.5161 16.7594 66.8287 16.7594ZM67.0644 24.8251H61.7028L61.968 24.5896V30.8008L61.6734 30.5064H67.2706C68.174 30.5064 68.8909 30.266 69.4211 29.7852C69.9514 29.3044 70.2165 28.5832 70.2165 27.6216C70.2165 26.7385 70.0398 26.1007 69.6863 25.7082C69.3327 25.3157 68.9105 25.0704 68.4195 24.9723C67.9285 24.8742 67.4768 24.8251 67.0644 24.8251ZM88.8355 18.1429C89.3462 18.1429 89.7684 18.3147 90.1023 18.6581C90.4362 19.0015 90.6031 19.4284 90.6031 19.9386V27.4155C90.6031 29.4957 90.0237 31.1442 88.865 32.3609C87.7063 33.5776 86.0369 34.186 83.857 34.186C81.677 34.186 80.0125 33.5776 78.8636 32.3609C77.7147 31.1442 77.1403 29.4957 77.1403 27.4155V19.9386C77.1403 19.4284 77.3072 19.0015 77.6411 18.6581C77.975 18.3147 78.3972 18.1429 78.9078 18.1429C79.4184 18.1429 79.8407 18.3147 80.1746 18.6581C80.5084 19.0015 80.6754 19.4284 80.6754 19.9386V27.4155C80.6754 28.6126 80.9405 29.5006 81.4708 30.0796C82.001 30.6585 82.7964 30.948 83.857 30.948C84.9371 30.948 85.7423 30.6585 86.2726 30.0796C86.8029 29.5006 87.068 28.6126 87.068 27.4155V19.9386C87.068 19.4284 87.2349 19.0015 87.5688 18.6581C87.9027 18.3147 88.3249 18.1429 88.8355 18.1429ZM102.592 17.8486C103.967 17.8486 105.199 18.1969 106.289 18.8936C107.379 19.5903 108.243 20.5469 108.882 21.7637C109.52 22.9804 109.839 24.3934 109.839 26.0026C109.839 27.6118 109.52 29.0297 108.882 30.2562C108.243 31.4827 107.389 32.4443 106.319 33.141C105.248 33.8377 104.046 34.186 102.71 34.186C101.924 34.186 101.188 34.0584 100.501 33.8033C99.8133 33.5482 99.2093 33.2244 98.6889 32.8319C98.1684 32.4394 97.7658 32.042 97.4811 31.6397C97.1963 31.2374 97.0539 30.8989 97.0539 30.6241L97.9671 30.2415V32.3904C97.9671 32.9006 97.8002 33.3274 97.4663 33.6709C97.1325 34.0143 96.7102 34.186 96.1996 34.186C95.689 34.186 95.2667 34.0192 94.9329 33.6856C94.599 33.352 94.432 32.9202 94.432 32.3904V13.904C94.432 13.3938 94.599 12.967 94.9329 12.6235C95.2667 12.2801 95.689 12.1084 96.1996 12.1084C96.7102 12.1084 97.1325 12.2801 97.4663 12.6235C97.8002 12.967 97.9671 13.3938 97.9671 13.904V21.381L97.4663 21.1161C97.4663 20.8609 97.6038 20.5519 97.8788 20.1888C98.1537 19.8257 98.5269 19.4627 98.9982 19.0996C99.4696 18.7366 100.015 18.4373 100.633 18.2018C101.252 17.9663 101.905 17.8486 102.592 17.8486ZM102.15 21.0866C101.286 21.0866 100.53 21.3025 99.882 21.7342C99.2339 22.166 98.7282 22.7498 98.3648 23.4857C98.0015 24.2216 97.8198 25.0606 97.8198 26.0026C97.8198 26.9249 98.0015 27.7639 98.3648 28.5194C98.7282 29.275 99.2339 29.8686 99.882 30.3003C100.53 30.7321 101.286 30.948 102.15 30.948C103.014 30.948 103.766 30.7321 104.404 30.3003C105.042 29.8686 105.543 29.275 105.906 28.5194C106.27 27.7639 106.451 26.9249 106.451 26.0026C106.451 25.0606 106.27 24.2216 105.906 23.4857C105.543 22.7498 105.042 22.166 104.404 21.7342C103.766 21.3025 103.014 21.0866 102.15 21.0866ZM120.945 17.8486C122.32 17.8486 123.552 18.1969 124.642 18.8936C125.732 19.5903 126.596 20.5469 127.234 21.7637C127.873 22.9804 128.192 24.3934 128.192 26.0026C128.192 27.6118 127.873 29.0297 127.234 30.2562C126.596 31.4827 125.742 32.4443 124.671 33.141C123.601 33.8377 122.398 34.186 121.063 34.186C120.277 34.186 119.541 34.0584 118.853 33.8033C118.166 33.5482 117.562 33.2244 117.042 32.8319C116.521 32.4394 116.118 32.042 115.834 31.6397C115.549 31.2374 115.407 30.8989 115.407 30.6241L116.32 30.2415V32.3904C116.32 32.9006 116.153 33.3274 115.819 33.6709C115.485 34.0143 115.063 34.186 114.552 34.186C114.042 34.186 113.619 34.0192 113.285 33.6856C112.952 33.352 112.785 32.9202 112.785 32.3904V13.904C112.785 13.3938 112.952 12.967 113.285 12.6235C113.619 12.2801 114.042 12.1084 114.552 12.1084C115.063 12.1084 115.485 12.2801 115.819 12.6235C116.153 12.967 116.32 13.3938 116.32 13.904V21.381L115.819 21.1161C115.819 20.8609 115.956 20.5519 116.231 20.1888C116.506 19.8257 116.879 19.4627 117.351 19.0996C117.822 18.7366 118.367 18.4373 118.986 18.2018C119.604 17.9663 120.257 17.8486 120.945 17.8486ZM120.503 21.0866C119.639 21.0866 118.883 21.3025 118.235 21.7342C117.587 22.166 117.081 22.7498 116.717 23.4857C116.354 24.2216 116.172 25.0606 116.172 26.0026C116.172 26.9249 116.354 27.7639 116.717 28.5194C117.081 29.275 117.587 29.8686 118.235 30.3003C118.883 30.7321 119.639 30.948 120.503 30.948C121.367 30.948 122.118 30.7321 122.757 30.3003C123.395 29.8686 123.896 29.275 124.259 28.5194C124.622 27.7639 124.804 26.9249 124.804 26.0026C124.804 25.0606 124.622 24.2216 124.259 23.4857C123.896 22.7498 123.395 22.166 122.757 21.7342C122.118 21.3025 121.367 21.0866 120.503 21.0866ZM134.967 32.096C134.967 32.6062 134.795 33.0331 134.451 33.3765C134.108 33.7199 133.681 33.8916 133.17 33.8916C132.679 33.8916 132.267 33.7199 131.933 33.3765C131.599 33.0331 131.432 32.6062 131.432 32.096V13.904C131.432 13.3938 131.604 12.967 131.947 12.6235C132.291 12.2801 132.718 12.1084 133.229 12.1084C133.74 12.1084 134.157 12.2801 134.481 12.6235C134.805 12.967 134.967 13.3938 134.967 13.904V32.096ZM150.345 18.1429C150.855 18.1429 151.278 18.3147 151.612 18.6581C151.945 19.0015 152.112 19.4284 152.112 19.9386V32.4492C152.112 34.2547 151.774 35.6922 151.096 36.7617C150.418 37.8313 149.51 38.6015 148.371 39.0725C147.232 39.5435 145.955 39.779 144.541 39.779C143.913 39.779 143.245 39.7299 142.538 39.6318C141.831 39.5337 141.252 39.3865 140.8 39.1903C140.211 38.9351 139.803 38.6162 139.577 38.2336C139.352 37.8509 139.307 37.4437 139.445 37.0119C139.622 36.4428 139.906 36.0552 140.299 35.8492C140.692 35.6431 141.104 35.6186 141.537 35.7756C141.851 35.8737 142.263 36.0258 142.774 36.2319C143.284 36.4379 143.874 36.5409 144.541 36.5409C145.445 36.5409 146.196 36.4183 146.795 36.173C147.394 35.9277 147.846 35.5156 148.15 34.9366C148.454 34.3577 148.607 33.5678 148.607 32.567V30.5947L149.225 31.3012C148.891 31.9488 148.474 32.4836 147.973 32.9055C147.473 33.3274 146.878 33.6463 146.191 33.8622C145.504 34.0781 144.718 34.186 143.834 34.186C142.793 34.186 141.885 33.9456 141.109 33.4648C140.334 32.984 139.73 32.3168 139.298 31.4631C138.866 30.6094 138.65 29.6331 138.65 28.5341V19.9386C138.65 19.4284 138.816 19.0015 139.15 18.6581C139.484 18.3147 139.906 18.1429 140.417 18.1429C140.928 18.1429 141.35 18.3147 141.684 18.6581C142.018 19.0015 142.185 19.4284 142.185 19.9386V27.4744C142.185 28.75 142.464 29.6478 143.024 30.1679C143.584 30.6879 144.365 30.948 145.366 30.948C146.054 30.948 146.633 30.8155 147.104 30.5506C147.576 30.2856 147.939 29.8931 148.194 29.3731C148.45 28.853 148.577 28.2201 148.577 27.4744V19.9386C148.577 19.4284 148.744 19.0015 149.078 18.6581C149.412 18.3147 149.834 18.1429 150.345 18.1429ZM166.606 33.8916C166.056 33.8916 165.565 33.7199 165.133 33.3765C164.701 33.0331 164.485 32.6062 164.485 32.096V15.0815C164.485 14.5713 164.657 14.1444 165.001 13.801C165.345 13.4576 165.772 13.2859 166.282 13.2859H174.767C175.788 13.2859 176.745 13.5557 177.639 14.0954C178.532 14.6351 179.254 15.3808 179.804 16.3326C180.354 17.2844 180.629 18.3784 180.629 19.6148C180.629 20.3605 180.477 21.0866 180.172 21.7931C179.868 22.4996 179.455 23.1374 178.935 23.7065C178.415 24.2756 177.83 24.7172 177.182 25.0312L177.212 24.3541C177.762 24.6485 178.218 24.9968 178.581 25.3991C178.945 25.8014 179.23 26.2332 179.436 26.6943C179.642 27.1555 179.765 27.651 179.804 28.1809C179.883 28.6715 179.937 29.1032 179.966 29.4761C179.996 29.849 180.054 30.163 180.143 30.4181C180.231 30.6732 180.403 30.8695 180.658 31.0068C181.09 31.2619 181.36 31.6299 181.468 32.1107C181.576 32.5915 181.464 33.0183 181.13 33.3912C180.914 33.6463 180.639 33.8082 180.305 33.8769C179.971 33.9456 179.637 33.9456 179.303 33.8769C178.969 33.8082 178.694 33.715 178.478 33.5973C178.144 33.401 177.811 33.1116 177.477 32.7289C177.143 32.3462 176.873 31.8311 176.667 31.1834C176.46 30.5358 176.357 29.7018 176.357 28.6813C176.357 28.3477 176.298 28.0386 176.181 27.7541C176.063 27.4695 175.896 27.2242 175.68 27.0181C175.464 26.8121 175.189 26.6551 174.855 26.5472C174.521 26.4392 174.128 26.3852 173.677 26.3852H167.726L168.168 25.7082V32.096C168.168 32.6062 168.03 33.0331 167.755 33.3765C167.48 33.7199 167.097 33.8916 166.606 33.8916ZM167.755 23.3533H174.619C174.973 23.3533 175.316 23.1914 175.65 22.8676C175.984 22.5437 176.259 22.1022 176.475 21.5429C176.691 20.9836 176.799 20.3703 176.799 19.7031C176.799 18.8396 176.568 18.1184 176.107 17.5395C175.645 16.9606 175.149 16.6711 174.619 16.6711H167.814L168.168 15.7291V24.0597L167.755 23.3533ZM191.558 34.186C189.889 34.186 188.441 33.8377 187.213 33.141C185.986 32.4443 185.043 31.4974 184.385 30.3003C183.727 29.1032 183.398 27.7492 183.398 26.2381C183.398 24.4719 183.757 22.9657 184.474 21.7195C185.19 20.4734 186.128 19.5167 187.287 18.8494C188.446 18.1822 189.673 17.8486 190.969 17.8486C191.971 17.8486 192.918 18.0546 193.812 18.4667C194.706 18.8789 195.496 19.4431 196.184 20.1594C196.871 20.8757 197.416 21.7048 197.818 22.6468C198.221 23.5888 198.422 24.5896 198.422 25.6493C198.403 26.1203 198.216 26.503 197.863 26.7974C197.509 27.0917 197.097 27.2389 196.625 27.2389H185.372L184.488 24.2952H195.3L194.652 24.884V24.0892C194.612 23.5201 194.411 23.0098 194.048 22.5585C193.684 22.1071 193.233 21.749 192.693 21.484C192.153 21.2191 191.578 21.0866 190.969 21.0866C190.38 21.0866 189.83 21.1651 189.32 21.3221C188.809 21.4791 188.367 21.744 187.994 22.1169C187.621 22.4898 187.326 22.9902 187.11 23.6182C186.894 24.2462 186.786 25.041 186.786 26.0026C186.786 27.0623 187.007 27.9601 187.449 28.696C187.891 29.432 188.46 29.9913 189.158 30.3739C189.855 30.7566 190.596 30.948 191.382 30.948C192.108 30.948 192.688 30.8891 193.12 30.7713C193.552 30.6536 193.9 30.5113 194.166 30.3445C194.431 30.1777 194.671 30.0354 194.887 29.9177C195.241 29.741 195.575 29.6527 195.889 29.6527C196.321 29.6527 196.679 29.7999 196.964 30.0943C197.249 30.3887 197.391 30.7321 197.391 31.1246C197.391 31.6544 197.116 32.1352 196.566 32.567C196.056 32.9987 195.339 33.3765 194.416 33.7003C193.493 34.0241 192.54 34.186 191.558 34.186ZM208.233 17.8486C209.352 17.8486 210.329 17.9663 211.164 18.2018C211.999 18.4373 212.647 18.766 213.108 19.1879C213.57 19.6099 213.801 20.1152 213.801 20.7039C213.801 21.0964 213.683 21.4644 213.447 21.8078C213.211 22.1513 212.868 22.323 212.416 22.323C212.102 22.323 211.842 22.2788 211.635 22.1905C211.429 22.1022 211.247 21.9894 211.09 21.852C210.933 21.7146 210.747 21.587 210.531 21.4693C210.334 21.3516 210.035 21.2583 209.632 21.1897C209.229 21.121 208.93 21.0866 208.734 21.0866C207.732 21.0866 206.883 21.3025 206.185 21.7342C205.488 22.166 204.953 22.7498 204.58 23.4857C204.207 24.2216 204.02 25.0704 204.02 26.032C204.02 26.974 204.212 27.8129 204.595 28.5489C204.978 29.2848 205.508 29.8686 206.185 30.3003C206.863 30.7321 207.644 30.948 208.527 30.948C209.018 30.948 209.441 30.9185 209.794 30.8596C210.148 30.8008 210.442 30.7125 210.678 30.5947C210.953 30.4377 211.198 30.2709 211.414 30.0943C211.63 29.9177 211.954 29.8294 212.387 29.8294C212.897 29.8294 213.29 29.9913 213.565 30.3151C213.84 30.6389 213.977 31.0363 213.977 31.5073C213.977 31.9979 213.702 32.4443 213.152 32.8466C212.603 33.2489 211.881 33.5727 210.987 33.818C210.094 34.0633 209.126 34.186 208.085 34.186C206.534 34.186 205.189 33.8279 204.05 33.1116C202.911 32.3953 202.032 31.4189 201.413 30.1826C200.794 28.9463 200.485 27.5627 200.485 26.032C200.485 24.4228 200.814 23.0049 201.472 21.7784C202.13 20.5519 203.043 19.5903 204.212 18.8936C205.38 18.1969 206.721 17.8486 208.233 17.8486ZM219.87 32.096C219.87 32.6062 219.703 33.0331 219.369 33.3765C219.035 33.7199 218.613 33.8916 218.102 33.8916C217.591 33.8916 217.169 33.7199 216.835 33.3765C216.501 33.0331 216.334 32.6062 216.334 32.096V19.9386C216.334 19.4284 216.501 19.0015 216.835 18.6581C217.169 18.3147 217.591 18.1429 218.102 18.1429C218.613 18.1429 219.035 18.3147 219.369 18.6581C219.703 19.0015 219.87 19.4284 219.87 19.9386V32.096ZM218.073 16.2296C217.405 16.2296 216.933 16.1216 216.659 15.9057C216.384 15.6899 216.246 15.3072 216.246 14.7577V14.1984C216.246 13.6293 216.398 13.2417 216.703 13.0357C217.007 12.8296 217.474 12.7266 218.102 12.7266C218.789 12.7266 219.271 12.8345 219.546 13.0504C219.82 13.2662 219.958 13.6489 219.958 14.1984V14.7577C219.958 15.3268 219.811 15.7144 219.516 15.9205C219.221 16.1265 218.74 16.2296 218.073 16.2296ZM231.654 17.8486C233.029 17.8486 234.261 18.1969 235.351 18.8936C236.441 19.5903 237.305 20.5469 237.943 21.7637C238.582 22.9804 238.901 24.3934 238.901 26.0026C238.901 27.6118 238.582 29.0297 237.943 30.2562C237.305 31.4827 236.451 32.4443 235.38 33.141C234.31 33.8377 233.107 34.186 231.772 34.186C230.986 34.186 230.25 34.0584 229.562 33.8033C228.875 33.5482 228.271 33.2244 227.751 32.8319C227.23 32.4394 226.828 32.042 226.543 31.6397C226.258 31.2374 226.116 30.8989 226.116 30.6241L227.029 30.2415V37.9834C227.029 38.4936 226.862 38.9204 226.528 39.2639C226.194 39.6073 225.772 39.779 225.261 39.779C224.751 39.779 224.328 39.6122 223.995 39.2786C223.661 38.945 223.494 38.5132 223.494 37.9834V19.9386C223.494 19.4284 223.661 19.0015 223.995 18.6581C224.328 18.3147 224.751 18.1429 225.261 18.1429C225.772 18.1429 226.194 18.3147 226.528 18.6581C226.862 19.0015 227.029 19.4284 227.029 19.9386V21.381L226.528 21.1161C226.528 20.8609 226.665 20.5519 226.94 20.1888C227.215 19.8257 227.589 19.4627 228.06 19.0996C228.531 18.7366 229.076 18.4373 229.695 18.2018C230.314 17.9663 230.967 17.8486 231.654 17.8486ZM231.212 21.0866C230.348 21.0866 229.592 21.3025 228.944 21.7342C228.296 22.166 227.79 22.7498 227.427 23.4857C227.063 24.2216 226.882 25.0606 226.882 26.0026C226.882 26.9249 227.063 27.7639 227.427 28.5194C227.79 29.275 228.296 29.8686 228.944 30.3003C229.592 30.7321 230.348 30.948 231.212 30.948C232.076 30.948 232.827 30.7321 233.466 30.3003C234.104 29.8686 234.605 29.275 234.968 28.5194C235.331 27.7639 235.513 26.9249 235.513 26.0026C235.513 25.0606 235.331 24.2216 234.968 23.4857C234.605 22.7498 234.104 22.166 233.466 21.7342C232.827 21.3025 232.076 21.0866 231.212 21.0866ZM249.123 34.186C247.453 34.186 246.005 33.8377 244.778 33.141C243.55 32.4443 242.607 31.4974 241.949 30.3003C241.292 29.1032 240.963 27.7492 240.963 26.2381C240.963 24.4719 241.321 22.9657 242.038 21.7195C242.755 20.4734 243.692 19.5167 244.851 18.8494C246.01 18.1822 247.237 17.8486 248.534 17.8486C249.535 17.8486 250.483 18.0546 251.376 18.4667C252.27 18.8789 253.06 19.4431 253.748 20.1594C254.435 20.8757 254.98 21.7048 255.383 22.6468C255.785 23.5888 255.987 24.5896 255.987 25.6493C255.967 26.1203 255.781 26.503 255.427 26.7974C255.073 27.0917 254.661 27.2389 254.19 27.2389H242.936L242.053 24.2952H252.864L252.216 24.884V24.0892C252.177 23.5201 251.975 23.0098 251.612 22.5585C251.249 22.1071 250.797 21.749 250.257 21.484C249.717 21.2191 249.142 21.0866 248.534 21.0866C247.944 21.0866 247.394 21.1651 246.884 21.3221C246.373 21.4791 245.931 21.744 245.558 22.1169C245.185 22.4898 244.89 22.9902 244.674 23.6182C244.458 24.2462 244.35 25.041 244.35 26.0026C244.35 27.0623 244.571 27.9601 245.013 28.696C245.455 29.432 246.025 29.9913 246.722 30.3739C247.419 30.7566 248.16 30.948 248.946 30.948C249.673 30.948 250.252 30.8891 250.684 30.7713C251.116 30.6536 251.465 30.5113 251.73 30.3445C251.995 30.1777 252.236 30.0354 252.452 29.9177C252.805 29.741 253.139 29.6527 253.453 29.6527C253.885 29.6527 254.244 29.7999 254.528 30.0943C254.813 30.3887 254.956 30.7321 254.956 31.1246C254.956 31.6544 254.681 32.1352 254.131 32.567C253.62 32.9987 252.903 33.3765 251.98 33.7003C251.057 34.0241 250.105 34.186 249.123 34.186Z" fill="black"/>
</svg>
